<svg width="128" height="129" viewBox="0 0 128 129" fill="none" xmlns="http://www.w3.org/2000/svg">
<path d="M121.189 26.8546C118.682 18.7957 114.946 11.3471 110.053 4.47273C109.688 3.96004 109.384 3.82572 108.775 4.00885C104.589 5.19312 100.329 5.96233 96.0091 6.40196C89.8509 7.02473 84.2769 7.03685 77.7415 6.29222C73.2873 5.7792 68.9061 4.8878 64.5734 3.66684C64.1353 3.54465 63.5998 3.54465 63.1739 3.66684C55.7622 5.79132 48.1923 6.8416 40.4887 6.85372C33.1502 6.86585 25.9331 5.92564 18.8622 3.97216C18.3998 3.84997 18.132 3.86209 17.8035 4.31385C13.4222 10.4069 9.99018 16.9883 7.45879 24.0582C7.09368 25.084 6.77724 26.1218 6.42432 27.1721C44.7604 27.1721 82.9993 27.1842 121.299 27.1842C121.238 27.0132 121.214 26.9401 121.189 26.8546Z" fill="#FFEB3C"/>
<path d="M124.324 43.6574C123.97 39.2391 123.25 34.8934 122.164 30.5966C122.067 30.1949 121.933 30.0367 121.493 30.0488C119.663 30.0852 117.832 30.0731 116.002 30.0731C110.474 30.0731 104.946 30.0731 99.4185 30.0731V30H23.1511V30.0731C17.5134 30.0731 11.888 30.0731 6.25027 30.0609C5.68895 30.0609 5.48148 30.2192 5.35946 30.7549C4.44426 34.5527 3.74869 38.399 3.37041 42.2942C2.61384 50.17 3.00433 57.9724 4.6517 65.7142C7.43393 78.7996 13.218 90.412 22.0651 100.454C32.9133 112.761 46.3609 120.819 62.3342 124.641C63.0053 124.799 63.7497 124.921 64.4208 124.799C65.8363 124.544 67.2275 124.166 68.6185 123.777C79.2961 120.758 88.8753 115.67 97.3316 108.5C107.192 100.15 114.489 89.9616 119.248 77.9596C121.664 71.8733 123.238 65.5802 124.019 59.0923C124.641 53.9554 124.739 48.8189 124.324 43.6574Z" fill="#FFE600"/>
<path d="M1.05194 45.0215C0.75965 54.9066 1.66087 65.3516 4.77866 74.7863C7.93299 84.3549 12.7071 93.0104 19.1375 100.765C22.3771 104.685 25.9698 108.252 29.9158 111.466C39.8904 119.586 51.1679 125.003 63.7607 127.645C63.9923 127.694 64.2479 127.694 64.4793 127.645C79.9828 124.358 93.3309 117.102 104.487 105.854C114.705 95.5548 121.549 83.3203 125.057 69.2471C127.03 61.31 127.736 53.2508 127.176 45.1067C126.08 29.0249 120.575 14.5992 110.747 1.81653C110.455 1.43911 110.211 1.39061 109.784 1.51216C103.671 3.32622 97.4351 4.43393 91.0657 4.64099C88.1549 4.73829 85.232 4.66523 82.309 4.60429C81.3591 4.58005 80.435 4.39756 79.485 4.26356C79.1076 4.25144 78.7042 4.16625 78.3267 4.15381C77.3037 4.0565 76.2686 4.02013 75.2577 3.86189C71.6525 3.32622 68.0965 2.52256 64.589 1.48791C64.2967 1.40273 63.9435 1.40273 63.6512 1.48791C55.4913 3.91038 47.161 4.98172 38.6482 4.72617C31.8035 4.53123 25.093 3.47234 18.5164 1.53673C18.3215 1.47579 18.1267 1.42698 17.8466 1.3418C16.9697 2.54713 16.0319 3.74002 15.1672 4.98172C9.08996 13.6618 4.92481 23.1816 2.67172 33.5294C1.84355 37.3154 1.33206 41.1499 1.05194 45.0215ZM1.05194 45.0215L1.0477 45.1676C1.06353 44.8632 1.03976 45.277 1.05194 45.0215ZM64.1139 30.2669C57.4154 30.2669 50.7173 30.2669 44.0189 30.2669C31.5721 30.2669 19.1375 30.2669 6.69075 30.2544C6.13051 30.2544 5.92345 30.4127 5.80169 30.9483C4.88827 34.759 4.19408 38.6059 3.81653 42.5014C3.06144 50.3778 3.45116 58.1812 5.0953 65.9237C7.88426 78.9986 13.657 90.6122 22.4867 100.656C33.3135 112.963 46.7347 121.022 62.677 124.845C63.3468 125.003 64.0896 125.125 64.7594 125.003C66.1721 124.748 67.5604 124.37 68.9488 123.981C79.6053 120.962 89.1658 115.873 97.6058 108.702C107.446 100.351 114.729 90.1617 119.479 78.1585C121.89 72.0716 123.462 65.7776 124.241 59.2889C124.85 54.1639 124.947 49.0143 124.545 43.865C124.192 39.4456 123.474 35.0997 122.39 30.8022C122.292 30.4006 122.158 30.2423 121.72 30.2544C119.893 30.2911 118.066 30.279 116.239 30.279C98.8602 30.279 81.4931 30.2669 64.1139 30.2669ZM121.586 27.5397C121.537 27.3572 121.513 27.2842 121.489 27.2111C118.967 19.1764 115.241 11.7505 110.345 4.89653C109.979 4.38511 109.675 4.25144 109.066 4.43393C104.876 5.61469 100.614 6.39379 96.2905 6.83215C90.1278 7.453 84.55 7.47725 78.0099 6.73484C73.5524 6.22342 69.1681 5.33489 64.8325 4.11744C64.3941 3.99557 63.8583 3.99557 63.432 4.11744C56.0149 6.23554 48.4399 7.28263 40.7306 7.29475C33.3745 7.28263 26.1525 6.35742 19.0644 4.40968C18.6016 4.28781 18.3337 4.29993 18.0049 4.75042C13.6205 10.8252 10.1861 17.3991 7.66504 24.4476C7.29968 25.4701 6.98304 26.5051 6.62983 27.5519C45.0055 27.5397 83.259 27.5397 121.586 27.5397Z" stroke="black" stroke-miterlimit="10"/>
</svg>
