<svg width="735" height="191" viewBox="0 0 735 191" fill="none" xmlns="http://www.w3.org/2000/svg">
<path d="M332 80.0001L333.009 81.1104L332 80.0001ZM710.939 189.061C711.525 189.647 712.475 189.647 713.061 189.061L722.606 179.515C723.192 178.929 723.192 177.979 722.606 177.394C722.021 176.808 721.071 176.808 720.485 177.394L712 185.879L703.515 177.394C702.929 176.808 701.979 176.808 701.393 177.394C700.808 177.979 700.807 178.929 701.393 179.515L710.939 189.061ZM2.49984 80.0002C1.35952 80.9747 1.35957 80.9747 1.35963 80.9748C1.35965 80.9748 1.35971 80.9749 1.35974 80.9749C1.35984 80.975 1.35995 80.9752 1.36006 80.9753C1.3603 80.9756 1.3606 80.9759 1.36097 80.9763C1.36168 80.9772 1.36263 80.9783 1.36385 80.9797C1.36623 80.9825 1.36959 80.9864 1.37392 80.9914C1.38255 81.0015 1.39504 81.016 1.41134 81.0348C1.44395 81.0725 1.49186 81.1277 1.55495 81.1998C1.68113 81.3439 1.86807 81.5556 2.11484 81.8306C2.6084 82.3803 3.34137 83.1828 4.30655 84.2021L6.48493 82.1394C5.53882 81.1402 4.82385 80.3574 4.34729 79.8265C4.109 79.5611 3.93032 79.3586 3.81217 79.2237C3.75307 79.1562 3.70914 79.1056 3.68043 79.0724C3.66608 79.0558 3.65553 79.0435 3.64883 79.0357C3.64546 79.0318 3.64305 79.029 3.64162 79.0273C3.6409 79.0265 3.64042 79.0259 3.64018 79.0256C3.64005 79.0255 3.63998 79.0254 3.63998 79.0254C3.63998 79.0254 3.63999 79.0255 3.64002 79.0255C3.64004 79.0255 3.64008 79.0255 3.64008 79.0255C3.64012 79.0256 3.64017 79.0256 2.49984 80.0002ZM10.6171 90.5408C12.5202 92.369 14.7056 94.4021 17.1631 96.5885L19.1571 94.3471C16.7298 92.1875 14.5724 90.1805 12.6954 88.3773L10.6171 90.5408ZM23.8963 102.368C26.0681 104.166 28.3871 106.027 30.8491 107.927L32.6821 105.552C30.2486 103.674 27.9564 101.835 25.81 100.057L23.8963 102.368ZM37.9855 113.244C40.3208 114.922 42.7585 116.615 45.2959 118.309L46.9618 115.815C44.4541 114.14 42.0446 112.466 39.7363 110.807L37.9855 113.244ZM52.7783 123.119C55.2502 124.647 57.802 126.166 60.4318 127.664L61.9171 125.058C59.3194 123.578 56.7983 122.077 54.3559 120.567L52.7783 123.119ZM68.2543 131.934C70.8512 133.29 73.5145 134.619 76.2425 135.914L77.5292 133.204C74.8363 131.926 72.207 130.613 69.6427 129.274L68.2543 131.934ZM84.3309 139.565C87.0202 140.716 89.7657 141.83 92.566 142.898L93.6355 140.095C90.8735 139.041 88.165 137.943 85.5115 136.807L84.3309 139.565ZM100.95 145.902C103.743 146.837 106.585 147.725 109.475 148.559L110.306 145.677C107.458 144.855 104.656 143.98 101.903 143.057L100.95 145.902ZM118.065 150.838C120.917 151.529 123.812 152.165 126.749 152.74L127.326 149.796C124.433 149.23 121.581 148.603 118.771 147.923L118.065 150.838ZM135.541 154.258C138.452 154.693 141.401 155.067 144.386 155.374L144.694 152.39C141.754 152.087 138.851 151.719 135.984 151.291L135.541 154.258ZM153.237 156.08C156.178 156.247 159.151 156.348 162.157 156.379L162.188 153.379C159.229 153.349 156.302 153.249 153.407 153.085L153.237 156.08ZM171.068 156.264C173.993 156.159 176.948 155.985 179.929 155.741L179.684 152.751C176.748 152.992 173.84 153.162 170.96 153.266L171.068 156.264ZM188.833 154.805C191.729 154.434 194.65 153.994 197.594 153.482L197.08 150.527C194.18 151.03 191.304 151.464 188.451 151.829L188.833 154.805ZM206.335 151.765C209.203 151.136 212.093 150.438 215.002 149.669L214.235 146.768C211.367 147.527 208.519 148.215 205.693 148.834L206.335 151.765ZM223.521 147.226C226.339 146.355 229.175 145.416 232.028 144.406L231.027 141.578C228.212 142.574 225.414 143.501 222.635 144.36L223.521 147.226ZM240.283 141.306C243.031 140.214 245.794 139.055 248.572 137.829L247.361 135.084C244.616 136.296 241.887 137.44 239.175 138.518L240.283 141.306ZM256.545 134.139C259.207 132.851 261.882 131.499 264.569 130.082L263.17 127.428C260.513 128.829 257.869 130.166 255.238 131.439L256.545 134.139ZM272.265 125.865C274.829 124.407 277.403 122.889 279.988 121.31L278.424 118.75C275.866 120.313 273.318 121.815 270.782 123.257L272.265 125.865ZM287.432 116.612C289.888 115.011 292.354 113.355 294.828 111.641L293.12 109.175C290.669 110.873 288.227 112.513 285.794 114.098L287.432 116.612ZM302.059 106.489C304.402 104.772 306.753 103.004 309.112 101.182L307.279 98.8079C304.94 100.614 302.609 102.367 300.286 104.069L302.059 106.489ZM316.178 95.5858C318.406 93.7761 320.641 91.919 322.882 90.0136L320.939 87.728C318.715 89.6189 316.497 91.4616 314.286 93.2569L316.178 95.5858ZM329.624 84.1516C330.751 83.1502 331.879 82.1365 333.009 81.1104L330.991 78.8898C329.87 79.9087 328.75 80.9151 327.631 81.9093L329.624 84.1516ZM333.009 81.1104C334.132 80.0901 335.255 79.0813 336.379 78.084L334.388 75.8401C333.255 76.8451 332.123 77.8617 330.991 78.8898L333.009 81.1104ZM343.125 72.2374C345.374 70.3341 347.624 68.4761 349.874 66.6629L347.991 64.327C345.722 66.1554 343.454 68.0286 341.187 69.9473L343.125 72.2374ZM356.94 61.1149C359.304 59.3081 361.667 57.5499 364.03 55.8398L362.271 53.4095C359.887 55.1352 357.503 56.909 355.118 58.7316L356.94 61.1149ZM371.281 50.7399C373.756 49.0495 376.23 47.4109 378.703 45.8236L377.082 43.2991C374.585 44.902 372.088 46.5562 369.589 48.2626L371.281 50.7399ZM386.165 41.1842C388.746 39.6312 391.326 38.1332 393.902 36.6895L392.435 34.0723C389.832 35.5313 387.226 37.0448 384.618 38.6135L386.165 41.1842ZM401.622 32.5198C404.293 31.131 406.961 29.7997 409.624 28.525L408.329 25.819C405.636 27.1081 402.939 28.4541 400.238 29.858L401.622 32.5198ZM417.628 24.8571C420.373 23.6549 423.113 22.5119 425.847 21.4273L424.741 18.6387C421.974 19.7364 419.202 20.8929 416.425 22.1091L417.628 24.8571ZM434.102 18.3217C436.918 17.3195 439.727 16.3786 442.529 15.4975L441.629 12.6357C438.792 13.528 435.947 14.4807 433.096 15.4952L434.102 18.3217ZM450.993 13.01C453.873 12.2227 456.744 11.4981 459.605 10.8349L458.927 7.91239C456.028 8.58445 453.12 9.31858 450.202 10.1161L450.993 13.01ZM468.231 9.01386C471.162 8.45554 474.083 7.96112 476.991 7.5291L476.55 4.56167C473.602 4.99967 470.641 5.50089 467.669 6.06684L468.231 9.01386ZM485.724 6.41363C488.691 6.09644 491.645 5.84384 494.583 5.65414L494.39 2.66036C491.409 2.85277 488.414 3.10896 485.405 3.43061L485.724 6.41363ZM503.387 5.27139C506.364 5.20484 509.323 5.20256 512.265 5.26278L512.326 2.26341C509.342 2.20232 506.339 2.20464 503.32 2.27212L503.387 5.27139ZM521.09 5.63272C524.05 5.82052 526.991 6.07143 529.91 6.38358L530.229 3.40057C527.267 3.08384 524.283 2.82928 521.28 2.63874L521.09 5.63272ZM538.688 7.51446C541.612 7.95561 544.513 8.45813 547.39 9.02008L547.965 6.07573C545.046 5.50554 542.102 4.99565 539.136 4.54803L538.688 7.51446ZM556.052 10.9073C558.925 11.5986 561.772 12.3494 564.592 13.1574L565.419 10.2735C562.558 9.45367 559.669 8.69197 556.753 7.9905L556.052 10.9073ZM573.055 15.7801C575.862 16.7164 578.639 17.7097 581.386 18.7579L582.455 15.9551C579.669 14.8917 576.852 13.8841 574.004 12.9342L573.055 15.7801ZM589.577 22.0845C592.298 23.2569 594.985 24.4835 597.638 25.7622L598.941 23.0597C596.25 21.7628 593.524 20.5186 590.765 19.3294L589.577 22.0845ZM605.52 29.7661C608.131 31.162 610.705 32.6088 613.241 34.1042L614.765 31.5199C612.193 30.0034 609.582 28.5361 606.934 27.1205L605.52 29.7661ZM620.772 38.7577C623.253 40.3626 625.694 42.0147 628.092 43.7116L629.825 41.2624C627.392 39.5417 624.918 37.8664 622.402 36.2389L620.772 38.7577ZM635.222 48.9797C637.564 50.7863 639.861 52.6364 642.113 54.5274L644.043 52.23C641.759 50.3124 639.429 48.4363 637.054 46.6044L635.222 48.9797ZM648.77 60.3567C650.958 62.3545 653.097 64.3919 655.186 66.4663L657.3 64.3375C655.181 62.2336 653.011 60.1674 650.793 58.1414L648.77 60.3567ZM661.327 72.8258C663.339 74.9995 665.298 77.2084 667.203 79.4499L669.489 77.5075C667.557 75.2334 665.57 72.9927 663.528 70.7879L661.327 72.8258ZM672.789 86.3199C674.603 88.6535 676.36 91.0178 678.058 93.41L680.505 91.6739C678.782 89.2457 676.998 86.8462 675.157 84.4782L672.789 86.3199ZM683.02 100.746C684.624 103.237 686.165 105.753 687.64 108.293L690.234 106.786C688.736 104.206 687.171 101.65 685.542 99.1216L683.02 100.746ZM691.893 116.028C693.259 118.659 694.556 121.31 695.781 123.98L698.508 122.729C697.262 120.014 695.944 117.319 694.555 114.645L691.893 116.028ZM699.267 132.106C700.363 134.85 701.383 137.61 702.325 140.381L705.165 139.416C704.206 136.594 703.168 133.786 702.053 130.994L699.267 132.106ZM704.943 148.822C705.742 151.67 706.457 154.528 707.088 157.392L710.018 156.746C709.375 153.827 708.645 150.914 707.831 148.011L704.943 148.822ZM708.733 166.054C709.197 168.968 709.572 171.883 709.855 174.798L712.841 174.508C712.552 171.532 712.17 168.555 711.696 165.582L708.733 166.054ZM710.428 183.603C710.476 185.07 710.5 186.536 710.5 188L713.5 188C713.5 186.503 713.475 185.004 713.426 183.505L710.428 183.603ZM332 80.0001L334.017 82.2207L332 80.0001ZM709.879 190.121C711.05 191.293 712.95 191.293 714.121 190.121L733.213 171.03C734.385 169.858 734.385 167.959 733.213 166.787C732.042 165.615 730.142 165.615 728.97 166.787L712 183.757L695.029 166.787C693.858 165.615 691.958 165.615 690.787 166.787C689.615 167.958 689.615 169.858 690.787 171.03L709.879 190.121ZM2.49984 80.0002C0.219217 81.9492 0.219296 81.9493 0.219401 81.9494C0.219441 81.9494 0.219528 81.9496 0.219609 81.9497C0.21977 81.9498 0.219926 81.95 0.220099 81.9502C0.220465 81.9506 0.220875 81.9511 0.221351 81.9517C0.222323 81.9528 0.223513 81.9542 0.224942 81.9559C0.227821 81.9592 0.231676 81.9637 0.236458 81.9693C0.246067 81.9805 0.259517 81.9961 0.276786 82.0161C0.311346 82.056 0.361232 82.1135 0.426343 82.1878C0.556542 82.3365 0.747594 82.553 0.998618 82.8326C1.50067 83.3918 2.24265 84.2041 3.21736 85.2335L7.5741 81.1081C6.63753 80.119 5.93158 79.3459 5.46349 78.8245C5.22946 78.5638 5.05491 78.366 4.94078 78.2356C4.8837 78.1704 4.84172 78.1221 4.81497 78.0912C4.8016 78.0757 4.79202 78.0646 4.78627 78.0579C4.78339 78.0545 4.78146 78.0523 4.7805 78.0512C4.78002 78.0506 4.77978 78.0503 4.77977 78.0503C4.77977 78.0503 4.77983 78.0504 4.77994 78.0505C4.78 78.0506 4.78008 78.0507 4.78016 78.0508C4.7802 78.0508 4.78029 78.0509 4.78031 78.0509C4.7804 78.051 4.78047 78.0511 2.49984 80.0002ZM9.57792 91.6225C11.494 93.4632 13.6935 95.5094 16.166 97.7091L20.1542 93.2264C17.7419 91.0802 15.5985 89.0862 13.7346 87.2956L9.57792 91.6225ZM22.9394 103.523C25.1239 105.332 27.4564 107.203 29.9325 109.115L33.5987 104.365C31.1793 102.497 28.9005 100.669 26.7668 98.902L22.9394 103.523ZM37.11 114.462C39.4588 116.15 41.9107 117.853 44.4629 119.557L47.7948 114.567C45.3019 112.902 42.9066 111.239 40.6117 109.589L37.11 114.462ZM51.9895 124.395C54.4761 125.932 57.0433 127.46 59.6892 128.968L62.6597 123.755C60.078 122.283 57.5724 120.792 55.1447 119.292L51.9895 124.395ZM67.5602 133.264C70.1733 134.628 72.8535 135.966 75.5992 137.269L78.1725 131.849C75.4973 130.579 72.8849 129.275 70.3369 127.945L67.5602 133.264ZM83.7406 140.944C86.4478 142.103 89.2118 143.224 92.0312 144.299L94.1702 138.694C91.4274 137.647 88.7375 136.556 86.1018 135.428L83.7406 140.944ZM100.473 147.324C103.286 148.266 106.148 149.161 109.059 150L110.722 144.236C107.895 143.42 105.113 142.551 102.38 141.635L100.473 147.324ZM117.712 152.296C120.585 152.992 123.502 153.633 126.461 154.212L127.614 148.324C124.744 147.762 121.913 147.14 119.124 146.465L117.712 152.296ZM135.319 155.742C138.253 156.18 141.224 156.556 144.233 156.866L144.847 150.898C141.931 150.598 139.05 150.233 136.206 149.808L135.319 155.742ZM153.152 157.578C156.116 157.746 159.113 157.848 162.142 157.879L162.203 151.879C159.268 151.849 156.364 151.75 153.492 151.588L153.152 157.578ZM171.122 157.763C174.07 157.657 177.047 157.482 180.052 157.236L179.561 151.256C176.649 151.495 173.763 151.664 170.906 151.767L171.122 157.763ZM189.024 156.293C191.942 155.919 194.884 155.475 197.85 154.96L196.823 149.049C193.945 149.549 191.091 149.979 188.261 150.341L189.024 156.293ZM206.656 153.23C209.546 152.597 212.456 151.894 215.386 151.119L213.852 145.318C211.004 146.071 208.177 146.754 205.372 147.369L206.656 153.23ZM223.964 148.659C226.801 147.782 229.656 146.837 232.529 145.82L230.527 140.164C227.73 141.154 224.952 142.074 222.192 142.927L223.964 148.659ZM240.837 142.7C243.602 141.601 246.383 140.435 249.178 139.201L246.755 133.712C244.028 134.916 241.316 136.053 238.62 137.124L240.837 142.7ZM257.199 135.489C259.876 134.193 262.566 132.834 265.269 131.409L262.471 126.101C259.828 127.495 257.199 128.823 254.584 130.089L257.199 135.489ZM273.007 127.169C275.584 125.703 278.172 124.177 280.77 122.59L277.643 117.47C275.097 119.025 272.563 120.519 270.041 121.954L273.007 127.169ZM288.251 117.868C290.719 116.26 293.196 114.596 295.682 112.875L292.266 107.942C289.826 109.631 287.396 111.264 284.975 112.841L288.251 117.868ZM302.945 107.699C305.299 105.975 307.66 104.199 310.029 102.37L306.362 97.6207C304.033 99.4191 301.712 101.165 299.399 102.859L302.945 107.699ZM317.123 96.7502C319.361 94.9333 321.604 93.069 323.854 91.1564L319.967 86.5852C317.752 88.4689 315.543 90.3044 313.341 92.0925L317.123 96.7502ZM330.621 85.2727C331.751 84.2677 332.883 83.2504 334.017 82.2207L329.983 77.7795C328.865 78.7947 327.749 79.7976 326.635 80.7882L330.621 85.2727ZM334.017 82.2207C335.136 81.2043 336.255 80.1993 337.375 79.2059L333.392 74.7182C332.255 75.7271 331.119 76.7475 329.983 77.7795L334.017 82.2207ZM344.094 73.3824C346.334 71.4868 348.574 69.6365 350.815 67.8309L347.05 63.159C344.772 64.995 342.494 66.8759 340.218 68.8023L344.094 73.3824ZM357.851 62.3066C360.205 60.5076 362.558 58.7573 364.91 57.0549L361.392 52.1944C358.997 53.9278 356.602 55.7094 354.207 57.5399L357.851 62.3066ZM372.127 51.9786C374.591 50.2961 377.053 48.6654 379.513 47.0859L376.271 42.0369C373.763 43.6475 371.253 45.3096 368.743 47.024L372.127 51.9786ZM386.938 42.4696C389.506 40.9244 392.072 39.4342 394.635 37.998L391.702 32.7638C389.085 34.2303 386.466 35.7515 383.845 37.3282L386.938 42.4696ZM402.314 33.8506C404.971 32.4694 407.624 31.1456 410.272 29.878L407.681 24.466C404.973 25.7623 402.261 27.1157 399.547 28.5272L402.314 33.8506ZM418.23 26.2311C420.959 25.0359 423.683 23.8997 426.4 22.8216L424.188 17.2444C421.405 18.3487 418.616 19.5119 415.823 20.7351L418.23 26.2311ZM434.605 19.7348C437.404 18.7389 440.195 17.8039 442.979 16.9285L441.179 11.2048C438.324 12.1027 435.462 13.0613 432.593 14.082L434.605 19.7348ZM451.389 14.4569C454.25 13.6747 457.102 12.9549 459.944 12.2961L458.589 6.45113C455.671 7.12761 452.743 7.86653 449.806 8.66922L451.389 14.4569ZM468.511 10.4874C471.423 9.93287 474.323 9.44182 477.211 9.01282L476.329 3.07795C473.361 3.51896 470.38 4.02359 467.389 4.59332L468.511 10.4874ZM485.883 7.90512C488.83 7.59017 491.762 7.33935 494.679 7.15101L494.293 1.1635C491.292 1.35724 488.276 1.61523 485.246 1.9391L485.883 7.90512ZM503.421 6.77099C506.376 6.70494 509.314 6.70268 512.234 6.76247L512.357 0.763726C509.351 0.702203 506.327 0.704537 503.287 0.772489L503.421 6.77099ZM520.995 7.12972C523.933 7.31614 526.852 7.56521 529.751 7.87508L530.389 1.90908C527.405 1.59006 524.4 1.33366 521.375 1.14176L520.995 7.12972ZM538.464 8.99768C541.366 9.43559 544.246 9.93442 547.102 10.4923L548.252 4.60354C545.312 4.02924 542.347 3.51567 539.359 3.06483L538.464 8.99768ZM555.701 12.3656C558.553 13.0519 561.38 13.7972 564.179 14.5994L565.832 8.83153C562.95 8.0058 560.041 7.23864 557.104 6.53213L555.701 12.3656ZM572.58 17.203C575.367 18.1325 578.124 19.1186 580.851 20.1593L582.99 14.5537C580.184 13.4828 577.346 12.4679 574.479 11.5113L572.58 17.203ZM588.984 23.462C591.685 24.626 594.353 25.8439 596.987 27.1135L599.592 21.7084C596.882 20.4024 594.137 19.1495 591.358 17.9519L588.984 23.462ZM604.812 31.0889C607.405 32.4749 609.961 33.9115 612.48 35.3963L615.527 30.2277C612.937 28.7007 610.308 27.2232 607.641 25.7977L604.812 31.0889ZM619.958 40.0171C622.421 41.6107 624.844 43.2512 627.226 44.9362L630.691 40.0378C628.242 38.3052 625.75 36.6183 623.217 34.9795L619.958 40.0171ZM634.306 50.1673C636.631 51.9613 638.913 53.7984 641.149 55.6761L645.007 51.0813C642.708 49.1504 640.362 47.2613 637.971 45.4167L634.306 50.1673ZM647.758 61.4644C649.931 63.4481 652.055 65.471 654.129 67.5307L658.357 63.2731C656.223 61.1545 654.038 59.0738 651.804 57.0337L647.758 61.4644ZM660.226 73.8448C662.224 76.0029 664.169 78.1958 666.059 80.4211L670.632 76.5364C668.686 74.246 666.685 71.9892 664.629 69.7689L660.226 73.8448ZM671.604 87.2408C673.406 89.5571 675.15 91.9038 676.835 94.278L681.728 90.8059C679.992 88.3597 678.196 85.9426 676.341 83.5573L671.604 87.2408ZM681.759 101.558C683.351 104.03 684.879 106.527 686.343 109.046L691.531 106.033C690.021 103.433 688.445 100.857 686.803 98.3093L681.759 101.558ZM690.562 116.719C691.917 119.329 693.203 121.958 694.418 124.606L699.871 122.103C698.615 119.366 697.286 116.649 695.887 113.954L690.562 116.719ZM697.874 132.662C698.96 135.383 699.971 138.118 700.905 140.864L706.585 138.933C705.618 136.086 704.571 133.253 703.446 130.437L697.874 132.662ZM703.498 149.227C704.29 152.049 704.999 154.879 705.623 157.714L711.483 156.423C710.833 153.476 710.097 150.536 709.275 147.606L703.498 149.227ZM707.252 166.29C707.711 169.174 708.082 172.059 708.362 174.943L714.334 174.363C714.042 171.356 713.656 168.349 713.177 165.346L707.252 166.29ZM708.928 183.652C708.976 185.103 709 186.553 709 188L715 188C715 186.486 714.975 184.972 714.925 183.456L708.928 183.652Z" fill="black"/>
</svg>
