<svg width="768" height="182" viewBox="0 0 768 182" fill="none" xmlns="http://www.w3.org/2000/svg">
<path d="M21.9392 179.561C22.525 180.147 23.4748 180.147 24.0606 179.561L33.6065 170.015C34.1923 169.429 34.1923 168.48 33.6065 167.894C33.0207 167.308 32.071 167.308 31.4852 167.894L22.9999 176.379L14.5146 167.894C13.9288 167.308 12.9791 167.308 12.3933 167.894C11.8075 168.48 11.8075 169.429 12.3933 170.015L21.9392 179.561ZM764.624 4.75091C763.351 3.95792 763.351 3.95788 763.351 3.95787C763.351 3.95787 763.351 3.95787 763.351 3.95787C763.351 3.95782 763.351 3.95787 763.351 3.95787C763.351 3.95797 763.351 3.95809 763.351 3.95835C763.35 3.95878 763.35 3.95952 763.349 3.96063C763.348 3.96276 763.346 3.96616 763.343 3.97078C763.337 3.98007 763.328 3.9943 763.316 4.0134C763.292 4.05169 763.256 4.10955 763.207 4.1866C763.11 4.34069 762.963 4.57137 762.768 4.87502C762.378 5.48231 761.794 6.38144 761.024 7.54321L763.523 9.20199C764.303 8.02725 764.895 7.11558 765.292 6.49615C765.491 6.18646 765.642 5.94978 765.743 5.78986C765.793 5.70991 765.832 5.64913 765.857 5.60798C765.87 5.5874 765.88 5.57174 765.887 5.56106C765.89 5.55569 765.893 5.5516 765.895 5.54873C765.895 5.5473 765.896 5.54618 765.897 5.54538C765.897 5.54496 765.897 5.54464 765.897 5.54438C765.897 5.54427 765.897 5.54416 765.897 5.54411C765.897 5.54405 765.897 5.544 765.897 5.544C765.897 5.54395 765.898 5.5439 764.624 4.75091ZM755.973 14.9278C754.476 17.0592 752.761 19.4567 750.837 22.0806L753.256 23.8549C755.193 21.2136 756.92 18.7993 758.428 16.6519L755.973 14.9278ZM745.528 29.1748C743.82 31.4131 741.998 33.7601 740.064 36.1991L742.415 38.0625C744.36 35.6087 746.194 33.2471 747.913 30.9948L745.528 29.1748ZM734.471 43.1264C732.663 45.3237 730.779 47.5756 728.82 49.872L731.102 51.8191C733.073 49.5086 734.969 47.2428 736.788 45.0322L734.471 43.1264ZM723.015 56.5524C721.087 58.7292 719.099 60.9352 717.051 63.1622L719.26 65.1928C721.321 62.9514 723.321 60.7315 725.261 58.5409L723.015 56.5524ZM710.974 69.6452C708.969 71.7422 706.915 73.8507 704.813 75.9643L706.94 78.08C709.057 75.9518 711.125 73.829 713.142 71.7181L710.974 69.6452ZM698.48 82.2005C696.372 84.2325 694.222 86.2634 692.03 88.2875L694.065 90.4917C696.274 88.4523 698.44 86.4065 700.562 84.36L698.48 82.2005ZM685.466 94.2126C683.26 96.1592 681.015 98.0942 678.733 100.013L680.664 102.309C682.965 100.375 685.227 98.4241 687.451 96.4622L685.466 94.2126ZM671.898 105.616C669.601 107.452 667.27 109.266 664.905 111.055L666.715 113.447C669.101 111.642 671.453 109.811 673.77 107.96L671.898 105.616ZM657.765 116.303C655.372 118.011 652.948 119.689 650.494 121.333L652.164 123.825C654.643 122.164 657.092 120.469 659.507 118.745L657.765 116.303ZM643.061 126.147C640.566 127.708 638.043 129.23 635.492 130.71L636.997 133.305C639.578 131.808 642.13 130.268 644.652 128.691L643.061 126.147ZM627.767 135.014C625.169 136.401 622.545 137.741 619.895 139.031L621.208 141.728C623.893 140.422 626.55 139.064 629.18 137.66L627.767 135.014ZM611.879 142.739C609.184 143.922 606.463 145.049 603.72 146.116L604.808 148.912C607.592 147.829 610.351 146.685 613.084 145.487L611.879 142.739ZM595.429 149.133C592.645 150.076 589.838 150.955 587.01 151.767L587.838 154.65C590.712 153.825 593.563 152.932 596.391 151.975L595.429 149.133ZM578.477 153.99C575.623 154.658 572.748 155.255 569.853 155.777L570.386 158.729C573.332 158.199 576.257 157.591 579.161 156.911L578.477 153.99ZM561.131 157.109C558.234 157.471 555.319 157.756 552.386 157.958L552.593 160.951C555.582 160.745 558.553 160.455 561.504 160.086L561.131 157.109ZM543.573 158.316C540.661 158.351 537.734 158.303 534.791 158.168L534.654 161.165C537.655 161.303 540.64 161.351 543.609 161.316L543.573 158.316ZM526.012 157.511C523.117 157.209 520.208 156.821 517.286 156.344L516.802 159.304C519.782 159.791 522.749 160.187 525.701 160.494L526.012 157.511ZM508.663 154.68C505.819 154.047 502.964 153.327 500.097 152.517L499.281 155.404C502.202 156.23 505.112 156.963 508.011 157.609L508.663 154.68ZM491.736 149.908C488.976 148.964 486.207 147.935 483.429 146.819L482.31 149.602C485.137 150.738 487.955 151.785 490.765 152.746L491.736 149.908ZM475.396 143.353C472.75 142.133 470.096 140.832 467.435 139.446L466.049 142.107C468.753 143.515 471.45 144.837 474.14 146.078L475.396 143.353ZM459.751 135.222C457.239 133.768 454.722 132.237 452.199 130.628L450.586 133.158C453.145 134.789 455.698 136.342 458.247 137.818L459.751 135.222ZM444.839 125.722C442.476 124.078 440.109 122.365 437.738 120.58L435.934 122.977C438.334 124.784 440.732 126.519 443.125 128.185L444.839 125.722ZM430.645 115.036C428.437 113.246 426.227 111.394 424.013 109.477L422.049 111.745C424.287 113.682 426.522 115.556 428.755 117.366L430.645 115.036ZM417.364 103.533C416.254 102.509 415.144 101.47 414.034 100.414L411.966 102.588C413.088 103.654 414.209 104.704 415.33 105.738L417.364 103.533ZM414.034 100.414C412.928 99.3622 411.821 98.3198 410.713 97.2866L408.667 99.4802C409.767 100.507 410.867 101.543 411.966 102.588L414.034 100.414ZM404.058 91.1958C401.836 89.2017 399.612 87.2437 397.384 85.3215L395.424 87.5926C397.637 89.502 399.847 91.4471 402.054 93.4283L404.058 91.1958ZM390.46 79.4672C388.141 77.5473 385.82 75.6657 383.497 73.8221L381.633 76.172C383.939 78.0026 386.244 79.8711 388.547 81.7779L390.46 79.4672ZM376.414 68.3226C373.999 66.4886 371.583 64.6954 369.165 62.9425L367.404 65.3713C369.804 67.1111 372.203 68.8912 374.6 70.7118L376.414 68.3226ZM361.908 57.8038C359.399 56.0686 356.888 54.3766 354.378 52.7272L352.73 55.2345C355.221 56.8708 357.712 58.5496 360.202 60.2715L361.908 57.8038ZM346.847 47.9069C344.274 46.3032 341.701 44.744 339.13 43.229L337.607 45.8136C340.157 47.316 342.708 48.8623 345.26 50.4529L346.847 47.9069ZM331.334 38.7676C328.695 37.302 326.058 35.8825 323.424 34.5088L322.037 37.1689C324.648 38.5304 327.261 39.9373 329.878 41.3902L331.334 38.7676ZM315.376 30.4498C312.67 29.1307 309.967 27.8596 307.268 26.636L306.029 29.3683C308.702 30.5803 311.38 31.8396 314.062 33.1465L315.376 30.4498ZM298.987 23.0246C296.213 21.8624 293.443 20.7501 290.68 19.6874L289.603 22.4875C292.339 23.5395 295.08 24.6407 297.828 25.7916L298.987 23.0246ZM282.19 16.5704C279.35 15.5772 276.517 14.6362 273.692 13.7469L272.791 16.6085C275.586 17.4883 278.389 18.4193 281.2 19.4022L282.19 16.5704ZM265.021 11.1716C262.119 10.3614 259.227 9.60573 256.345 8.90402L255.636 11.8188C258.484 12.5126 261.344 13.2598 264.214 14.0611L265.021 11.1716ZM247.529 6.91787C244.573 6.30584 241.63 5.75083 238.699 5.25215L238.196 8.20962C241.091 8.7023 244 9.25071 246.921 9.85558L247.529 6.91787ZM229.78 3.90171C226.78 3.50409 223.796 3.16594 220.829 2.88643L220.547 5.87323C223.477 6.14914 226.423 6.48303 229.386 6.87571L229.78 3.90171ZM211.855 2.2164C208.826 2.04976 205.816 1.94493 202.827 1.90102L202.783 4.90069C205.731 4.94399 208.701 5.04743 211.69 5.21187L211.855 2.2164ZM193.854 1.95306C190.814 2.03356 187.798 2.17803 184.806 2.38554L185.013 5.37834C187.962 5.17384 190.936 5.03139 193.934 4.95199L193.854 1.95306ZM175.845 3.20302C172.835 3.5444 169.852 3.95083 166.898 4.42131L167.37 7.38396C170.279 6.92063 173.217 6.52026 176.183 6.18392L175.845 3.20302ZM158.017 6.04626C155.063 6.65785 152.142 7.33509 149.254 8.07696L150.001 10.9826C152.842 10.2526 155.718 9.58601 158.625 8.98393L158.017 6.04626ZM140.542 10.542C137.655 11.4356 134.805 12.3958 131.994 13.4215L133.023 16.2397C135.787 15.2312 138.589 14.2868 141.429 13.4078L140.542 10.542ZM123.599 16.7285C120.812 17.9091 118.067 19.1568 115.367 20.4701L116.679 23.1679C119.332 21.8774 122.03 20.6513 124.769 19.4908L123.599 16.7285ZM107.36 24.6287C104.717 26.0918 102.121 27.6211 99.5746 29.2152L101.166 31.758C103.667 30.1926 106.217 28.6906 108.813 27.2534L107.36 24.6287ZM92.0478 34.2173C89.5831 35.9542 87.1707 37.7557 84.8126 39.6204L86.6734 41.9736C88.988 40.1432 91.3562 38.3748 93.7759 36.6696L92.0478 34.2173ZM77.8812 45.4221C75.626 47.4193 73.4276 49.4788 71.288 51.5992L73.3997 53.73C75.4994 51.6492 77.6569 49.6281 79.8702 47.6679L77.8812 45.4221ZM65.0491 58.1398C63.0351 60.3739 61.0816 62.667 59.1906 65.018L61.5283 66.8983C63.384 64.5912 65.301 62.3409 67.2773 60.1486L65.0491 58.1398ZM53.7295 72.2117C51.9786 74.6574 50.2913 77.1586 48.6694 79.7139L51.2023 81.3215C52.7943 78.8132 54.4505 76.3583 56.1688 73.958L53.7295 72.2117ZM44.0466 87.4621C42.5824 90.0771 41.1833 92.743 39.8511 95.4587L42.5445 96.7799C43.8528 94.1129 45.2266 91.4952 46.6642 88.9278L44.0466 87.4621ZM36.0826 103.695C34.9142 106.44 33.8114 109.231 32.7759 112.067L35.5939 113.096C36.6116 110.309 37.6952 107.566 38.843 104.869L36.0826 103.695ZM29.8956 120.635C29.0157 123.492 28.2016 126.391 27.455 129.331L30.3626 130.07C31.0971 127.178 31.8976 124.327 32.7628 121.518L29.8956 120.635ZM25.4516 138.11C24.8547 141.05 24.3234 144.028 23.859 147.042L26.824 147.499C27.2813 144.531 27.8043 141.6 28.3916 138.707L25.4516 138.11ZM22.6958 155.935C22.3752 158.906 22.1179 161.909 21.9254 164.945L24.9194 165.135C25.1091 162.143 25.3626 159.183 25.6785 156.257L22.6958 155.935ZM21.5475 173.937C21.5158 175.451 21.4999 176.972 21.4999 178.5L24.4999 178.5C24.4999 176.993 24.5156 175.492 24.5468 174L21.5475 173.937ZM20.8786 180.622C22.0502 181.793 23.9497 181.793 25.1212 180.622L44.2131 161.53C45.3847 160.358 45.3847 158.459 44.2131 157.287C43.0415 156.116 41.142 156.116 39.9705 157.287L22.9999 174.258L6.02935 157.287C4.85777 156.116 2.95828 156.116 1.7867 157.287C0.615132 158.459 0.615128 160.358 1.7867 161.53L20.8786 180.622ZM764.624 4.75091C762.078 3.16494 762.078 3.16488 762.078 3.16483C762.078 3.16478 762.078 3.16473 762.078 3.16472C762.078 3.16467 762.078 3.16467 762.078 3.16462C762.078 3.16462 762.078 3.16467 762.078 3.16483C762.078 3.16509 762.077 3.16568 762.077 3.16658C762.076 3.16834 762.074 3.17137 762.071 3.17567C762.066 3.18422 762.057 3.19776 762.046 3.21616C762.023 3.25297 761.987 3.3094 761.939 3.38497C761.844 3.5361 761.699 3.76383 761.506 4.06443C761.12 4.66567 760.54 5.55853 759.774 6.71382L764.773 10.0313C765.557 8.85016 766.153 7.93222 766.554 7.30674C766.755 6.99401 766.908 6.75436 767.011 6.59149C767.062 6.51006 767.101 6.44785 767.128 6.40526C767.141 6.38395 767.152 6.36759 767.159 6.35617C767.162 6.35044 767.165 6.34598 767.167 6.34278C767.168 6.34119 767.169 6.33986 767.17 6.3389C767.17 6.33842 767.17 6.338 767.17 6.33768C767.17 6.33747 767.17 6.33736 767.171 6.3372C767.171 6.33715 767.171 6.33705 767.171 6.33704C767.171 6.33694 767.171 6.33688 764.624 4.75091ZM754.745 14.0658C753.254 16.1891 751.545 18.5783 749.627 21.1934L754.465 24.7421C756.409 22.0921 758.142 19.6693 759.656 17.5139L754.745 14.0658ZM744.336 28.2649C742.633 30.4961 740.816 32.8359 738.889 35.2674L743.591 38.9942C745.542 36.5329 747.381 34.1641 749.105 31.9048L744.336 28.2649ZM733.312 42.1735C731.511 44.3641 729.632 46.6091 727.679 48.8985L732.243 52.7926C734.221 50.475 736.122 48.2024 737.946 45.9851L733.312 42.1735ZM721.891 55.558C719.97 57.7281 717.988 59.927 715.947 62.1469L720.364 66.208C722.431 63.9595 724.439 61.7326 726.384 59.5352L721.891 55.558ZM709.89 68.6087C707.892 70.6987 705.844 72.8001 703.749 74.9064L708.003 79.1378C710.127 77.0024 712.202 74.8725 714.227 72.7546L709.89 68.6087ZM697.438 81.1207C695.339 83.1454 693.196 85.1689 691.012 87.1855L695.082 91.5937C697.299 89.5468 699.473 87.4936 701.603 85.4398L697.438 81.1207ZM684.474 93.0878C682.276 95.0268 680.041 96.954 677.768 98.8645L681.629 103.457C683.939 101.515 686.211 99.5565 688.443 97.587L684.474 93.0878ZM670.962 104.445C668.675 106.272 666.354 108.078 664 109.859L667.62 114.644C670.017 112.83 672.38 110.991 674.707 109.132L670.962 104.445ZM656.894 115.082C654.513 116.781 652.101 118.451 649.659 120.087L652.999 125.071C655.491 123.402 657.951 121.699 660.379 119.966L656.894 115.082ZM642.266 124.875C639.785 126.427 637.275 127.941 634.739 129.413L637.75 134.602C640.346 133.097 642.912 131.548 645.447 129.962L642.266 124.875ZM627.06 133.69C624.479 135.069 621.871 136.401 619.239 137.682L621.865 143.077C624.567 141.762 627.241 140.396 629.887 138.983L627.06 133.69ZM611.277 141.366C608.6 142.54 605.899 143.658 603.176 144.718L605.351 150.31C608.156 149.219 610.935 148.067 613.687 146.861L611.277 141.366ZM594.947 147.712C592.185 148.648 589.401 149.52 586.596 150.325L588.251 156.092C591.149 155.261 594.023 154.36 596.872 153.395L594.947 147.712ZM578.135 152.53C575.305 153.192 572.456 153.784 569.587 154.301L570.652 160.206C573.624 159.67 576.575 159.057 579.503 158.372L578.135 152.53ZM560.945 155.62C558.075 155.979 555.187 156.261 552.283 156.462L552.697 162.448C555.714 162.239 558.712 161.946 561.69 161.574L560.945 155.62ZM543.555 156.816C540.672 156.851 537.773 156.803 534.86 156.67L534.586 162.664C537.616 162.802 540.63 162.852 543.627 162.816L543.555 156.816ZM526.168 156.019C523.301 155.72 520.421 155.336 517.528 154.863L516.56 160.785C519.569 161.276 522.564 161.676 525.546 161.986L526.168 156.019ZM508.989 153.216C506.173 152.589 503.344 151.876 500.505 151.074L498.873 156.848C501.821 157.681 504.759 158.421 507.685 159.073L508.989 153.216ZM492.221 148.488C489.487 147.553 486.742 146.534 483.988 145.427L481.75 150.994C484.601 152.14 487.445 153.196 490.28 154.166L492.221 148.488ZM476.024 141.991C473.4 140.781 470.768 139.49 468.127 138.116L465.357 143.438C468.081 144.856 470.8 146.189 473.512 147.44L476.024 141.991ZM460.502 133.924C458.01 132.48 455.511 130.961 453.006 129.364L449.78 134.423C452.356 136.065 454.928 137.629 457.496 139.116L460.502 133.924ZM445.695 124.491C443.348 122.858 440.997 121.155 438.64 119.382L435.032 124.175C437.447 125.993 439.859 127.74 442.269 129.416L445.695 124.491ZM431.589 113.87C429.395 112.091 427.196 110.249 424.995 108.343L421.067 112.879C423.317 114.827 425.565 116.71 427.811 118.531L431.589 113.87ZM418.381 102.43C417.277 101.412 416.172 100.378 415.067 99.3266L410.933 103.675C412.06 104.747 413.187 105.802 414.313 106.841L418.381 102.43ZM415.067 99.3266C413.958 98.2719 412.848 97.2263 411.736 96.1897L407.644 100.577C408.741 101.601 409.837 102.633 410.933 103.675L415.067 99.3266ZM405.06 90.0795C402.831 88.0789 400.599 86.1145 398.364 84.1859L394.444 88.7282C396.649 90.6312 398.852 92.5699 401.052 94.5446L405.06 90.0795ZM391.417 78.3119C389.09 76.3854 386.761 74.4972 384.43 72.6472L380.7 77.347C382.998 79.171 385.295 81.033 387.59 82.9332L391.417 78.3119ZM377.322 67.128C374.898 65.2874 372.472 63.4876 370.046 61.7281L366.524 66.5857C368.914 68.319 371.304 70.0924 373.693 71.9064L377.322 67.128ZM362.761 56.57C360.242 54.8281 357.722 53.1295 355.201 51.4736L351.907 56.4881C354.387 58.1179 356.868 59.7902 359.349 61.5053L362.761 56.57ZM347.64 46.6339C345.057 45.0237 342.474 43.4581 339.892 41.9366L336.846 47.106C339.385 48.602 341.925 50.1418 344.467 51.7259L347.64 46.6339ZM332.062 37.4562C329.412 35.9843 326.763 34.5586 324.117 33.1788L321.343 38.4989C323.942 39.8543 326.545 41.255 329.149 42.7016L332.062 37.4562ZM316.033 29.1014C313.314 27.7763 310.599 26.4992 307.887 25.2699L305.409 30.7345C308.07 31.9407 310.735 33.194 313.405 34.4949L316.033 29.1014ZM299.567 21.6411C296.779 20.4732 293.996 19.3555 291.219 18.2874L289.065 23.8875C291.786 24.9342 294.514 26.0299 297.248 27.1751L299.567 21.6411ZM282.685 15.1545C279.83 14.1561 276.982 13.2102 274.142 12.3162L272.341 18.0393C275.12 18.9143 277.908 19.8404 280.705 20.8182L282.685 15.1545ZM265.424 9.7269C262.507 8.91218 259.598 8.15229 256.7 7.44663L255.281 13.2763C258.113 13.966 260.957 14.709 263.811 15.5059L265.424 9.7269ZM247.834 5.44904C244.86 4.83341 241.899 4.27509 238.951 3.7734L237.944 9.68836C240.822 10.178 243.713 10.7231 246.617 11.3244L247.834 5.44904ZM229.977 2.41471C226.959 2.01463 223.956 1.67435 220.969 1.39306L220.407 7.36663C223.317 7.64073 226.245 7.97249 229.189 8.36269L229.977 2.41471ZM211.937 0.718649C208.888 0.550914 205.858 0.445382 202.849 0.401188L202.761 6.40054C205.689 6.44354 208.639 6.54627 211.608 6.7096L211.937 0.718649ZM193.815 0.453572C190.753 0.534656 187.715 0.680132 184.702 0.889127L185.117 6.87475C188.045 6.67171 190.997 6.53029 193.974 6.45147L193.815 0.453572ZM175.676 1.71258C172.643 2.05648 169.638 2.46593 166.662 2.93998L167.606 8.86529C170.492 8.4055 173.408 8.00817 176.352 7.67437L175.676 1.71258ZM157.713 4.57743C154.736 5.19378 151.792 5.87636 148.881 6.62413L150.374 12.4354C153.193 11.7114 156.045 11.0501 158.929 10.4528L157.713 4.57743ZM140.098 9.10909C137.188 10.01 134.314 10.9781 131.48 12.0124L133.537 17.6488C136.277 16.6489 139.056 15.7124 141.872 14.8407L140.098 9.10909ZM123.013 15.3473C120.203 16.5381 117.435 17.7964 114.711 19.1212L117.335 24.5168C119.965 23.2378 122.638 22.0224 125.354 20.872L123.013 15.3473ZM106.634 23.3163C103.967 24.7924 101.348 26.3353 98.7787 27.9438L101.962 33.0295C104.44 31.4783 106.967 29.99 109.54 28.5658L106.634 23.3163ZM91.1837 32.9912C88.6966 34.7439 86.2621 36.5619 83.8822 38.4438L87.6037 43.1502C89.8967 41.337 92.2428 39.5851 94.64 37.8956L91.1837 32.9912ZM76.8867 44.2991C74.6106 46.3149 72.3917 48.3935 70.2321 50.5337L74.4555 54.7955C76.5353 52.7344 78.6723 50.7324 80.8647 48.7909L76.8867 44.2991ZM63.935 57.1355C61.9022 59.3904 59.9304 61.705 58.0218 64.0779L62.6971 67.8384C64.5352 65.5533 66.4339 63.3243 68.3914 61.1529L63.935 57.1355ZM52.5099 71.3385C50.7427 73.8069 49.0398 76.3312 47.403 78.9101L52.4688 82.1253C54.0458 79.6406 55.6864 77.2088 57.3885 74.8312L52.5099 71.3385ZM42.7378 86.7292C41.2603 89.368 39.8485 92.058 38.5045 94.7981L43.8912 97.4405C45.1875 94.7979 46.5487 92.2042 47.973 89.6607L42.7378 86.7292ZM34.7024 103.107C33.5237 105.877 32.4113 108.692 31.3669 111.553L37.003 113.611C38.0117 110.848 39.0857 108.13 40.2232 105.457L34.7024 103.107ZM28.4621 120.194C27.5747 123.075 26.7539 125.998 26.0011 128.962L31.8165 130.439C32.5448 127.572 33.3386 124.745 34.1963 121.959L28.4621 120.194ZM23.9815 137.811C23.38 140.775 22.8445 143.776 22.3765 146.814L28.3066 147.727C28.7602 144.783 29.2791 141.875 29.8616 139.005L23.9815 137.811ZM21.2045 155.774C20.8814 158.767 20.6223 161.792 20.4284 164.85L26.4164 165.23C26.6047 162.26 26.8563 159.322 27.1698 156.418L21.2045 155.774ZM20.0478 173.906C20.0159 175.43 19.9999 176.962 19.9999 178.5L25.9999 178.5C25.9999 177.003 26.0155 175.513 26.0465 174.031L20.0478 173.906Z" fill="black"/>
</svg>
