<svg width="41" height="40" viewBox="0 0 41 40" fill="none" xmlns="http://www.w3.org/2000/svg">
<path d="M20.0999 13.0415C18.323 13.0415 16.6188 13.7285 15.3623 14.9514C14.1058 16.1743 13.3999 17.8328 13.3999 19.5623C13.3999 21.2917 14.1058 22.9502 15.3623 24.1731C16.6188 25.396 18.323 26.083 20.0999 26.083C21.8769 26.083 23.581 25.396 24.8375 24.1731C26.094 22.9502 26.7999 21.2917 26.7999 19.5623C26.7999 17.8328 26.094 16.1743 24.8375 14.9514C23.581 13.7285 21.8769 13.0415 20.0999 13.0415Z" fill="white"/>
<path fill-rule="evenodd" clip-rule="evenodd" d="M12.06 0C8.86148 0 5.79397 1.23661 3.53229 3.43779C1.2706 5.63897 0 8.62441 0 11.7374L0 27.3872C0 30.5001 1.2706 33.4855 3.53229 35.6867C5.79397 37.8879 8.86148 39.1245 12.06 39.1245H28.14C31.3385 39.1245 34.406 37.8879 36.6677 35.6867C38.9293 33.4855 40.2 30.5001 40.2 27.3872V11.7374C40.2 8.62441 38.9293 5.63897 36.6677 3.43779C34.406 1.23661 31.3385 0 28.14 0L12.06 0ZM10.72 19.5623C10.72 17.1411 11.7082 14.8191 13.4673 13.107C15.2264 11.395 17.6122 10.4332 20.1 10.4332C22.5877 10.4332 24.9735 11.395 26.7326 13.107C28.4917 14.8191 29.48 17.1411 29.48 19.5623C29.48 21.9834 28.4917 24.3054 26.7326 26.0175C24.9735 27.7295 22.5877 28.6913 20.1 28.6913C17.6122 28.6913 15.2264 27.7295 13.4673 26.0175C11.7082 24.3054 10.72 21.9834 10.72 19.5623ZM29.48 10.4332H32.16V7.8249H29.48V10.4332Z" fill="white"/>
</svg>
