<svg width="75" height="75" viewBox="0 0 75 75" fill="none" xmlns="http://www.w3.org/2000/svg">
<path d="M37.5 73C57.1061 73 73 57.1061 73 37.5C73 17.8939 57.1061 2 37.5 2C17.8939 2 2 17.8939 2 37.5C2 57.1061 17.8939 73 37.5 73Z" stroke="white" stroke-width="4"/>
<path d="M28.4197 13L23.8225 17.5431V20.1225L27.3756 16.6112L27.4093 27.7943V30.0408C27.4093 31.1558 27.2073 31.9879 26.8199 32.5204C26.4326 33.0696 25.7254 33.3359 24.715 33.3359C23.6878 33.3359 22.9806 33.0696 22.5933 32.5537C22.206 32.0378 22.0207 31.2057 22.0207 30.1074V23.3843H20V30.0408C20 31.8548 20.3705 33.1362 21.0946 33.885C21.8187 34.6339 23.0311 35 24.715 35C26.399 35 27.6114 34.6172 28.3355 33.8351C29.0596 33.0529 29.43 31.7716 29.43 29.9909V27.8275L29.4469 16.5946L33 20.1558V17.5598L28.4197 13Z" fill="white"/>
<path d="M36.8851 29.275C36.6828 28.6271 35.9839 28.3107 34.8437 28.3107C34.3655 28.3107 33.9609 28.3861 33.6115 28.5518C33.2621 28.7024 33.0966 28.9134 33.0966 29.1544C33.0966 29.6365 33.5195 29.9379 34.3471 30.0584L35.6713 30.2693C36.1862 30.3597 36.6276 30.4501 36.9954 30.5405C37.3632 30.646 37.7126 30.7815 38.0253 30.9473C38.3563 31.113 38.5954 31.339 38.7609 31.5951C38.9264 31.8663 39 32.1676 39 32.5292C39 33.2976 38.6138 33.9002 37.8598 34.3371C37.0874 34.774 36.1494 35 35.046 35C33.9241 35 33.0046 34.7589 32.269 34.2919C31.5333 33.8249 31.1103 33.2222 31 32.484H33.023C33.2253 33.3126 33.9241 33.7194 35.1195 33.7194C35.6713 33.7194 36.131 33.629 36.4805 33.4482C36.8299 33.2674 36.9954 33.0264 36.9954 32.725C36.9954 32.1977 36.4621 31.8362 35.377 31.6704L33.9609 31.4444C32.0851 31.1431 31.1471 30.3898 31.1471 29.2147C31.1471 28.5669 31.5149 28.0245 32.2506 27.6177C32.9862 27.2109 33.8874 27 34.9356 27C35.892 27 36.7379 27.1959 37.4552 27.5876C38.1724 27.9793 38.6322 28.5367 38.8161 29.2599H36.8851V29.275Z" fill="white"/>
<path d="M41.8471 31.4812C41.9119 32.1579 42.1549 32.6692 42.5924 33.0451C43.0299 33.4211 43.5159 33.6015 44.083 33.6015C45.1038 33.6015 45.7843 33.2406 46.1084 32.5338H47.8906C47.68 33.2105 47.2425 33.797 46.6106 34.2782C45.9625 34.7594 45.1524 35 44.164 35C42.884 35 41.8795 34.609 41.118 33.8271C40.3727 33.0451 40 32.0827 40 30.9399C40 29.797 40.3727 28.8496 41.1342 28.1128C41.8957 27.3759 42.8678 27 44.0344 27C45.282 27 46.2866 27.4211 47.0157 28.2632C47.7448 29.1053 48.0689 30.1729 47.9878 31.4812H41.8471ZM41.8471 30.2331H46.1408C46.1246 29.6617 45.8977 29.1955 45.4927 28.8346C45.0876 28.4887 44.6015 28.3083 44.0344 28.3083C43.5159 28.3083 43.0461 28.4586 42.6086 28.7744C42.1711 29.0902 41.9119 29.5714 41.8471 30.2331Z" fill="white"/>
<path d="M54.982 28.8075C54.6403 28.776 54.3165 28.7603 54.0108 28.7603C53.3273 28.7603 52.8237 28.9175 52.5 29.2161C52.1763 29.5147 52.0144 30.0491 52.0144 30.8193V35H50V27.0157H51.9964V28.446C52.518 27.5029 53.3453 27.0314 54.4784 27C54.6223 27 54.8022 27.0157 55 27.0314V28.8075H54.982Z" fill="white"/>
<path d="M23.9201 44.7518H20V43H30V44.7518H26.098V55H23.9201V44.7518Z" fill="white"/>
<path d="M35.52 47.1695C36.5 47.9492 37 49.0678 37 50.5085C37 51.9661 36.5 53.0678 35.52 53.8475C34.54 54.6271 33.36 55 32 55C30.64 55 29.46 54.6102 28.48 53.8475C27.5 53.0678 27 51.9661 27 50.5085C27 49.0508 27.5 47.9492 28.48 47.1695C29.46 46.3898 30.64 46 32 46C33.36 46 34.52 46.3898 35.52 47.1695ZM30.08 52.6949C30.6 53.2034 31.24 53.4576 31.98 53.4576C32.74 53.4576 33.38 53.2034 33.88 52.6949C34.4 52.1864 34.66 51.4576 34.66 50.5085C34.66 49.5593 34.4 48.8305 33.88 48.322C33.36 47.8136 32.72 47.5593 31.98 47.5593C31.22 47.5593 30.58 47.8136 30.08 48.322C29.56 48.8305 29.3 49.5593 29.3 50.5085C29.32 51.4576 29.56 52.1864 30.08 52.6949Z" fill="white"/>
<path d="M44.104 46.145V50.7687C44.104 52.5602 43.455 53.4645 42.1568 53.4645C41.8152 53.4645 41.5248 53.3962 41.3028 53.2768C41.0807 53.1573 40.9099 52.9697 40.8075 52.7308C40.705 52.4919 40.6366 52.2531 40.6025 52.0142C40.5683 51.7754 40.5512 51.4853 40.5512 51.1441V46.145L40.5854 40.6171L44.3261 44.3194V41.6749L39.663 37L35 41.6578V44.3024L38.604 40.7024L38.6211 46.128V51.5877C38.6211 53.8739 39.5947 55 41.5248 55C42.7205 55 43.5745 54.5393 44.087 53.601V54.7953H46V46.128H44.104V46.145Z" fill="white"/>
<path d="M52.982 48.0334C52.6403 47.998 52.3165 47.9804 52.0108 47.9804C51.3273 47.9804 50.8237 48.1572 50.5 48.4931C50.1763 48.8291 50.0144 49.4303 50.0144 50.2967V55H48V46.0177H49.9964V47.6267C50.518 46.5658 51.3453 46.0354 52.4784 46C52.6223 46 52.8022 46.0177 53 46.0354V48.0334H52.982Z" fill="white"/>
</svg>
