<svg width="35" height="40" viewBox="0 0 35 40" fill="none" xmlns="http://www.w3.org/2000/svg">
<g clip-path="url(#clip0)">
<path d="M2.5 32.7344L0 37.4375L0.0625 11.8125C0.0625 6.66406 4.21875 2.5 9.375 2.5H34.9375C27.6719 4.75781 20.1016 9.85938 15.1016 15.6719C9.58594 22.0312 6.45313 26.4062 2.5 32.7344ZM35 2.5C35 2.5 23.8438 7.71875 20.4375 15.5547C18.625 19.7422 18.1797 24.7812 14.8906 27.9453C12.6328 30.1172 9.4375 30.9297 6.66406 32.3438C4.85156 33.2812 1.47656 35.5078 0.03125 37.5H25.6875C30.8438 37.5 35.0078 33.3359 35.0078 28.1875C35 28.1875 35 2.5 35 2.5Z" fill="white"/>
</g>
<defs>
<clipPath id="clip0">
<rect width="35" height="40" fill="white"/>
</clipPath>
</defs>
</svg>
