<svg width="71" height="71" viewBox="0 0 71 71" fill="none" xmlns="http://www.w3.org/2000/svg">
<circle cx="35.5" cy="35.5" r="33.5" fill="#4F6DDB" stroke="white" stroke-width="4"/>
<path d="M18.77 39.9312C18.77 32.7515 24.5903 26.9312 31.77 26.9312H38.4137C45.5934 26.9312 51.4137 32.7515 51.4137 39.9312V46.5748C51.4137 53.7545 45.5934 59.5748 38.4137 59.5748H31.77C24.5903 59.5748 18.77 53.7545 18.77 46.5748V39.9312Z" fill="white"/>
<path d="M43.253 18.7703C43.253 23.2774 39.5992 26.9312 35.0921 26.9312C30.5849 26.9312 26.9312 23.2774 26.9312 18.7703C26.9312 14.2631 30.5849 10.6094 35.0921 10.6094C39.5992 10.6094 43.253 14.2631 43.253 18.7703Z" fill="white"/>
</svg>
