<svg width="71" height="71" viewBox="0 0 71 71" fill="none" xmlns="http://www.w3.org/2000/svg">
<circle cx="35.5" cy="35.5" r="33.5" fill="#3456D1" stroke="#3456D1" stroke-width="4"/>
<path d="M18.7701 39.9307C18.7701 32.751 24.5904 26.9307 31.7701 26.9307H38.4138C45.5935 26.9307 51.4138 32.751 51.4138 39.9307V46.5743C51.4138 53.754 45.5935 59.5743 38.4138 59.5743H31.7701C24.5904 59.5743 18.7701 53.754 18.7701 46.5743V39.9307Z" fill="white"/>
<path d="M43.2529 18.7703C43.2529 23.2774 39.5991 26.9312 35.0919 26.9312C30.5848 26.9312 26.931 23.2774 26.931 18.7703C26.931 14.2631 30.5848 10.6094 35.0919 10.6094C39.5991 10.6094 43.2529 14.2631 43.2529 18.7703Z" fill="white"/>
</svg>
