<svg width="40" height="39" viewBox="0 0 40 39" fill="none" xmlns="http://www.w3.org/2000/svg">
<path d="M20 0C8.95417 0 0 8.71457 0 19.4648C0 30.2151 8.95417 38.9297 20 38.9297C31.0458 38.9297 40 30.2151 40 19.4648C40 8.71457 31.0458 0 20 0ZM27.6917 21.9608C27.6917 21.9608 29.4604 23.6599 29.8958 24.4487C29.9083 24.4649 29.9146 24.4811 29.9187 24.4892C30.0958 24.7792 30.1375 25.0042 30.05 25.1725C29.9042 25.4523 29.4042 25.5902 29.2333 25.6024H26.1083C25.8917 25.6024 25.4375 25.5476 24.8875 25.1786C24.4646 24.8907 24.0479 24.4182 23.6417 23.958C23.0354 23.2727 22.5104 22.6806 21.9813 22.6806C21.914 22.6805 21.8472 22.6908 21.7833 22.711C21.3833 22.8367 20.8708 23.3923 20.8708 24.8724C20.8708 25.3347 20.4958 25.6003 20.2313 25.6003H18.8C18.3125 25.6003 15.7729 25.4341 13.5229 23.1246C10.7687 20.2962 8.28958 14.623 8.26875 14.5702C8.1125 14.2033 8.43542 14.0066 8.7875 14.0066H11.9437C12.3646 14.0066 12.5021 14.256 12.5979 14.477C12.7104 14.7345 13.1229 15.7584 13.8 16.9101C14.8979 18.7876 15.5708 19.55 16.1104 19.55C16.2116 19.5488 16.311 19.5238 16.4 19.477C17.1042 19.0958 16.9729 16.6526 16.9417 16.1457C16.9417 16.0504 16.9396 15.0528 16.5792 14.5743C16.3208 14.2276 15.8812 14.0958 15.6146 14.0471C15.7225 13.9022 15.8647 13.7846 16.0292 13.7045C16.5125 13.4693 17.3833 13.4348 18.2479 13.4348H18.7292C19.6667 13.447 19.9083 13.5058 20.2479 13.5889C20.9354 13.7491 20.95 14.181 20.8896 15.6591C20.8708 16.0788 20.8521 16.5532 20.8521 17.1128C20.8521 17.2345 20.8458 17.3643 20.8458 17.5021C20.825 18.2544 20.8 19.108 21.3458 19.4588C21.417 19.5022 21.4993 19.5254 21.5833 19.5257C21.7729 19.5257 22.3438 19.5257 23.8896 16.9446C24.3663 16.1138 24.7806 15.2505 25.1292 14.3614C25.1604 14.3087 25.2521 14.1465 25.3604 14.0836C25.4404 14.044 25.529 14.0238 25.6187 14.0248H29.3292C29.7333 14.0248 30.0104 14.0836 30.0625 14.2357C30.1542 14.477 30.0458 15.213 28.3521 17.4454L27.5958 18.4166C26.0604 20.3752 26.0604 20.4746 27.6917 21.9608Z" fill="white"/>
</svg>
